<svg width="300" height="300" xmlns="http://www.w3.org/2000/svg">
  <!-- Pattern Question for Logical Reasoning -->
  
  <!-- First Row -->
  <rect x="20" y="20" width="60" height="60" fill="none" stroke="#333" stroke-width="2"/>
  <circle cx="50" cy="50" r="20" fill="none" stroke="#333" stroke-width="2"/>
  
  <rect x="120" y="20" width="60" height="60" fill="none" stroke="#333" stroke-width="2"/>
  <polygon points="150,30 170,50 150,70 130,50" fill="none" stroke="#333" stroke-width="2"/>
  
  <rect x="220" y="20" width="60" height="60" fill="none" stroke="#333" stroke-width="2"/>
  <polygon points="250,30 270,60 230,60" fill="none" stroke="#333" stroke-width="2"/>
  
  <!-- Second Row -->
  <circle cx="50" cy="150" r="30" fill="none" stroke="#333" stroke-width="2"/>
  <rect x="35" y="135" width="30" height="30" fill="none" stroke="#333" stroke-width="2"/>
  
  <circle cx="150" cy="150" r="30" fill="none" stroke="#333" stroke-width="2"/>
  <polygon points="150,130 170,150 150,170 130,150" fill="none" stroke="#333" stroke-width="2"/>
  
  <circle cx="250" cy="150" r="30" fill="none" stroke="#333" stroke-width="2"/>
  <polygon points="250,130 270,160 230,160" fill="none" stroke="#333" stroke-width="2"/>
  
  <!-- Third Row (Options) -->
  <rect x="20" y="220" width="50" height="50" fill="none" stroke="#333" stroke-width="2"/>
  <circle cx="45" cy="245" r="15" fill="none" stroke="#333" stroke-width="2"/>
  <text x="75" y="245" font-family="Arial" font-size="12">A</text>
  
  <rect x="120" y="220" width="50" height="50" fill="none" stroke="#333" stroke-width="2"/>
  <polygon points="145,230 155,245 145,260 135,245" fill="none" stroke="#333" stroke-width="2"/>
  <text x="175" y="245" font-family="Arial" font-size="12">B</text>
  
  <circle cx="245" cy="245" r="25" fill="none" stroke="#333" stroke-width="2"/>
  <polygon points="245,230 260,250 245,260 230,250" fill="none" stroke="#333" stroke-width="2"/>
  <text x="275" y="245" font-family="Arial" font-size="12">C</text>
  
  <rect x="20" y="280" width="50" height="50" fill="none" stroke="#333" stroke-width="2" transform="translate(0, -30)"/>
  <polygon points="45,260 55,275 45,290 35,275" fill="none" stroke="#333" stroke-width="2"/>
  <text x="75" y="275" font-family="Arial" font-size="12">D</text>
</svg>